<svg 
 xmlns="http://www.w3.org/2000/svg"
 xmlns:xlink="http://www.w3.org/1999/xlink"
 width="907px" height="909px">
<defs>
<linearGradient id="PSgrad_0" x1="0%" x2="0%" y1="100%" y2="0%">
  <stop offset="0%" stop-color="rgb(151,145,73)" stop-opacity="1" />
  <stop offset="82%" stop-color="rgb(251,244,161)" stop-opacity="1" />
  <stop offset="97%" stop-color="rgb(253,250,208)" stop-opacity="1" />
  <stop offset="100%" stop-color="rgb(255,255,255)" stop-opacity="1" />
</linearGradient>
<filter id="Filter_0">
    <feFlood flood-color="rgb(0, 0, 0)" flood-opacity="0.41" result="floodOut" />
    <feComposite operator="atop" in="floodOut" in2="SourceGraphic" result="compOut" />
    <feBlend mode="normal" in="compOut" in2="SourceGraphic" />
</filter>
<linearGradient id="PSgrad_1" x1="0%" x2="30.902%" y1="95.106%" y2="0%">
  <stop offset="0%" stop-color="rgb(166,150,56)" stop-opacity="1" />
  <stop offset="50%" stop-color="rgb(151,135,52)" stop-opacity="1" />
  <stop offset="74%" stop-color="rgb(200,189,106)" stop-opacity="1" />
  <stop offset="100%" stop-color="rgb(249,242,159)" stop-opacity="1" />
</linearGradient>
<linearGradient id="PSgrad_2" x1="0%" x2="57.358%" y1="81.915%" y2="0%">
  <stop offset="0%" stop-color="rgb(128,111,44)" stop-opacity="1" />
  <stop offset="100%" stop-color="rgb(211,196,70)" stop-opacity="1" />
</linearGradient>

</defs>
<path fill-rule="evenodd"  fill="url(#PSgrad_0)"
 d="M456.500,12.000 C699.229,12.000 896.000,208.771 896.000,451.500 C896.000,694.229 699.229,891.000 456.500,891.000 C213.771,891.000 17.000,694.229 17.000,451.500 C17.000,208.771 213.771,12.000 456.500,12.000 Z"/>
<g filter="url(#Filter_0)">
<path fill-rule="evenodd"  fill="rgb(135, 130, 69)"
 d="M696.181,421.064 C716.181,433.143 729.819,442.397 737.094,448.826 C744.367,455.256 750.504,464.348 755.505,476.102 C760.504,487.858 763.006,502.500 763.006,520.035 C763.006,548.089 756.251,570.105 742.744,586.080 C729.234,602.056 708.973,611.928 681.959,615.693 L681.959,645.307 L645.722,645.307 L645.722,614.719 C624.681,612.643 606.300,604.558 590.586,590.464 C574.869,576.372 567.013,551.791 567.013,516.723 L567.013,501.332 L645.722,501.332 L645.722,520.619 C645.722,541.791 646.531,554.942 648.157,560.071 C649.779,565.203 653.709,567.767 659.944,567.767 C665.268,567.767 669.228,565.983 671.828,562.409 C674.425,558.838 675.724,553.544 675.724,546.531 C675.724,528.869 674.489,516.236 672.023,508.637 C669.554,501.039 661.113,492.759 646.696,483.797 C622.665,468.732 606.334,457.661 597.697,450.580 C589.058,443.502 581.591,433.533 575.293,420.674 C568.991,407.816 565.844,393.271 565.844,377.034 C565.844,353.527 572.498,335.083 585.813,321.704 C599.125,308.328 619.095,300.078 645.722,296.961 L645.722,271.829 L681.959,271.829 L681.959,296.961 C706.245,300.078 724.431,308.230 736.510,321.411 C748.589,334.596 754.628,352.812 754.628,376.060 C754.628,379.308 754.367,384.242 753.849,390.866 L675.140,390.866 L675.140,377.813 C675.140,363.917 674.230,354.824 672.412,350.538 C670.592,346.252 666.696,344.108 660.723,344.108 C655.916,344.108 652.312,345.959 649.910,349.661 C647.505,353.363 646.306,358.915 646.306,366.318 C646.306,378.659 648.772,387.295 653.709,392.230 C658.513,397.168 672.671,406.778 696.181,421.064 ZM520.726,605.541 C504.945,615.815 485.494,620.954 462.376,620.954 C438.346,620.954 418.541,616.601 402.955,607.900 C387.369,599.200 377.043,587.152 371.978,571.761 C366.913,556.369 364.380,533.219 364.380,502.306 L364.380,410.154 C364.380,387.426 365.159,370.379 366.718,359.013 C368.276,347.649 372.919,336.705 380.648,326.185 C388.374,315.664 399.089,307.384 412.794,301.345 C426.495,295.305 442.243,292.285 460.039,292.285 C484.197,292.285 504.133,296.955 519.850,306.294 C535.563,315.634 545.889,327.277 550.827,341.220 C555.761,355.162 558.230,376.854 558.230,406.297 L558.230,436.260 L476.209,436.260 L476.209,381.439 C476.209,365.500 475.332,355.551 473.579,351.597 C471.825,347.646 467.959,345.667 461.987,345.667 C455.232,345.667 450.946,348.072 449.128,352.875 C447.308,357.682 446.401,368.072 446.401,384.047 L446.401,530.555 C446.401,545.882 447.308,555.882 449.128,560.558 C450.946,565.234 455.037,567.572 461.402,567.572 C467.506,567.572 471.500,565.231 473.384,560.543 C475.265,555.855 476.209,544.853 476.209,527.535 L476.209,487.889 L558.230,487.889 L558.230,500.181 C558.230,532.829 555.922,555.983 551.314,569.639 C546.702,583.298 536.507,595.264 520.726,605.541 ZM202.514,614.330 L155.123,298.909 L241.625,298.909 C251.677,385.795 258.855,459.310 263.153,519.450 C267.391,458.668 271.887,404.705 276.648,357.563 L282.343,298.909 L368.845,298.909 L327.104,614.330 L202.514,614.330 Z"/>
</g>
<path fill-rule="evenodd"  fill="rgb(135, 130, 69)"
 d="M686.181,427.064 C706.181,439.143 719.819,448.397 727.094,454.826 C734.367,461.256 740.504,470.348 745.505,482.102 C750.504,493.858 753.006,508.501 753.006,526.035 C753.006,554.089 746.251,576.105 732.744,592.080 C719.234,608.056 698.973,617.928 671.959,621.693 L671.959,651.307 L635.722,651.307 L635.722,620.719 C614.681,618.643 596.300,610.558 580.586,596.464 C564.869,582.372 557.013,557.791 557.013,522.723 L557.013,507.332 L635.722,507.332 L635.722,526.619 C635.722,547.791 636.531,560.942 638.157,566.071 C639.779,571.203 643.709,573.767 649.944,573.767 C655.268,573.767 659.228,571.983 661.828,568.409 C664.425,564.838 665.724,559.544 665.724,552.531 C665.724,534.869 664.489,522.236 662.023,514.637 C659.554,507.039 651.113,498.759 636.696,489.797 C612.665,474.732 596.334,463.661 587.697,456.580 C579.058,449.502 571.591,439.533 565.293,426.674 C558.991,413.816 555.844,399.271 555.844,383.034 C555.844,359.527 562.498,341.083 575.813,327.704 C589.125,314.328 609.095,306.078 635.722,302.961 L635.722,277.829 L671.959,277.829 L671.959,302.961 C696.245,306.078 714.431,314.230 726.510,327.411 C738.589,340.596 744.628,358.812 744.628,382.060 C744.628,385.308 744.367,390.242 743.849,396.866 L665.140,396.866 L665.140,383.813 C665.140,369.917 664.230,360.824 662.412,356.538 C660.592,352.251 656.696,350.108 650.723,350.108 C645.916,350.108 642.312,351.959 639.910,355.661 C637.505,359.363 636.306,364.915 636.306,372.318 C636.306,384.659 638.772,393.295 643.709,398.230 C648.513,403.168 662.671,412.778 686.181,427.064 ZM510.726,611.541 C494.945,621.815 475.494,626.954 452.376,626.954 C428.346,626.954 408.541,622.601 392.955,613.900 C377.369,605.200 367.043,593.152 361.978,577.761 C356.913,562.369 354.380,539.219 354.380,508.306 L354.380,416.154 C354.380,393.426 355.159,376.379 356.718,365.012 C358.276,353.649 362.919,342.705 370.648,332.185 C378.374,321.664 389.089,313.384 402.794,307.345 C416.495,301.305 432.243,298.285 450.039,298.285 C474.197,298.285 494.133,302.955 509.850,312.294 C525.563,321.634 535.889,333.277 540.827,347.220 C545.761,361.162 548.230,382.854 548.230,412.297 L548.230,442.260 L466.209,442.260 L466.209,387.439 C466.209,371.500 465.332,361.551 463.579,357.597 C461.825,353.646 457.959,351.667 451.987,351.667 C445.232,351.667 440.946,354.072 439.128,358.876 C437.308,363.682 436.401,374.072 436.401,390.047 L436.401,536.555 C436.401,551.882 437.308,561.882 439.128,566.558 C440.946,571.234 445.037,573.572 451.402,573.572 C457.506,573.572 461.500,571.231 463.384,566.543 C465.265,561.855 466.209,550.853 466.209,533.535 L466.209,493.889 L548.230,493.889 L548.230,506.181 C548.230,538.829 545.922,561.983 541.314,575.639 C536.702,589.298 526.507,601.264 510.726,611.541 ZM192.514,620.330 L145.123,304.909 L231.625,304.909 C241.677,391.795 248.855,465.310 253.153,525.450 C257.391,464.668 261.887,410.705 266.648,363.564 L272.343,304.909 L358.845,304.909 L317.104,620.330 L192.514,620.330 Z"/>
<path fill="url(#PSgrad_1)"
 d="M686.181,427.064 C706.181,439.143 719.819,448.397 727.094,454.826 C734.367,461.256 740.504,470.348 745.505,482.102 C750.504,493.858 753.006,508.501 753.006,526.035 C753.006,554.089 746.251,576.105 732.744,592.080 C719.234,608.056 698.973,617.928 671.959,621.693 L671.959,651.307 L635.722,651.307 L635.722,620.719 C614.681,618.643 596.300,610.558 580.586,596.464 C564.869,582.372 557.013,557.791 557.013,522.723 L557.013,507.332 L635.722,507.332 L635.722,526.619 C635.722,547.791 636.531,560.942 638.157,566.071 C639.779,571.203 643.709,573.767 649.944,573.767 C655.268,573.767 659.228,571.983 661.828,568.409 C664.425,564.838 665.724,559.544 665.724,552.531 C665.724,534.869 664.489,522.236 662.023,514.637 C659.554,507.039 651.113,498.759 636.696,489.797 C612.665,474.732 596.334,463.661 587.697,456.580 C579.058,449.502 571.591,439.533 565.293,426.674 C558.991,413.816 555.844,399.271 555.844,383.034 C555.844,359.527 562.498,341.083 575.813,327.704 C589.125,314.328 609.095,306.078 635.722,302.961 L635.722,277.829 L671.959,277.829 L671.959,302.961 C696.245,306.078 714.431,314.230 726.510,327.411 C738.589,340.596 744.628,358.812 744.628,382.060 C744.628,385.308 744.367,390.242 743.849,396.866 L665.140,396.866 L665.140,383.813 C665.140,369.917 664.230,360.824 662.412,356.538 C660.592,352.251 656.696,350.108 650.723,350.108 C645.916,350.108 642.312,351.959 639.910,355.661 C637.505,359.363 636.306,364.915 636.306,372.318 C636.306,384.659 638.772,393.295 643.709,398.230 C648.513,403.168 662.671,412.778 686.181,427.064 ZM510.726,611.541 C494.945,621.815 475.494,626.954 452.376,626.954 C428.346,626.954 408.541,622.601 392.955,613.900 C377.369,605.200 367.043,593.152 361.978,577.761 C356.913,562.369 354.380,539.219 354.380,508.306 L354.380,416.154 C354.380,393.426 355.159,376.379 356.718,365.012 C358.276,353.649 362.919,342.705 370.648,332.185 C378.374,321.664 389.089,313.384 402.794,307.345 C416.495,301.305 432.243,298.285 450.039,298.285 C474.197,298.285 494.133,302.955 509.850,312.294 C525.563,321.634 535.889,333.277 540.827,347.220 C545.761,361.162 548.230,382.854 548.230,412.297 L548.230,442.260 L466.209,442.260 L466.209,387.439 C466.209,371.500 465.332,361.551 463.579,357.597 C461.825,353.646 457.959,351.667 451.987,351.667 C445.232,351.667 440.946,354.072 439.128,358.876 C437.308,363.682 436.401,374.072 436.401,390.047 L436.401,536.555 C436.401,551.882 437.308,561.882 439.128,566.558 C440.946,571.234 445.037,573.572 451.402,573.572 C457.506,573.572 461.500,571.231 463.384,566.543 C465.265,561.855 466.209,550.853 466.209,533.535 L466.209,493.889 L548.230,493.889 L548.230,506.181 C548.230,538.829 545.922,561.983 541.314,575.639 C536.702,589.298 526.507,601.264 510.726,611.541 ZM192.514,620.330 L145.123,304.909 L231.625,304.909 C241.677,391.795 248.855,465.310 253.153,525.450 C257.391,464.668 261.887,410.705 266.648,363.564 L272.343,304.909 L358.845,304.909 L317.104,620.330 L192.514,620.330 Z"/>
<path fill-rule="evenodd"  fill="rgb(0, 0, 0)"
 d="M451.000,909.000 C201.920,909.000 0.000,707.080 0.000,458.000 C0.000,208.920 201.920,7.000 451.000,7.000 C700.080,7.000 902.000,208.920 902.000,458.000 C902.000,707.080 700.080,909.000 451.000,909.000 ZM451.500,90.000 C247.983,90.000 83.000,254.983 83.000,458.500 C83.000,662.017 247.983,827.000 451.500,827.000 C655.017,827.000 820.000,662.017 820.000,458.500 C820.000,254.983 655.017,90.000 451.500,90.000 Z"/>
<path fill-rule="evenodd"  fill="url(#PSgrad_2)"
 d="M456.000,902.000 C206.920,902.000 5.000,700.080 5.000,451.000 C5.000,201.920 206.920,0.000 456.000,0.000 C705.080,0.000 907.000,201.920 907.000,451.000 C907.000,700.080 705.080,902.000 456.000,902.000 ZM456.500,83.000 C252.983,83.000 88.000,247.983 88.000,451.500 C88.000,655.017 252.983,820.000 456.500,820.000 C660.017,820.000 825.000,655.017 825.000,451.500 C825.000,247.983 660.017,83.000 456.500,83.000 Z"/>
</svg>