<svg 
 xmlns="http://www.w3.org/2000/svg"
 xmlns:xlink="http://www.w3.org/1999/xlink"
 width="902px" height="902px">
<defs>
<filter id="Filter_0">
    <feFlood flood-color="rgb(35, 161, 91)" flood-opacity="1" result="floodOut" />
    <feComposite operator="atop" in="floodOut" in2="SourceGraphic" result="compOut" />
    <feBlend mode="normal" in="compOut" in2="SourceGraphic" />
</filter>

</defs>
<g filter="url(#Filter_0)">
<path fill-rule="evenodd"  fill="rgb(255, 255, 255)"
 d="M868.032,622.943 L623.188,621.873 C596.385,621.873 574.082,617.373 556.288,608.373 C538.485,599.373 524.282,587.073 513.688,571.473 C503.085,555.873 495.585,537.479 491.188,516.273 C486.782,495.076 484.588,472.079 484.588,447.273 C484.588,422.476 486.782,399.479 491.188,378.273 C493.835,365.514 497.666,353.786 502.633,343.054 L513.612,323.649 C513.741,323.460 513.858,323.261 513.988,323.073 C524.788,307.473 539.085,295.173 556.888,286.173 C574.682,277.173 596.985,272.673 623.788,272.673 L865.472,272.969 C888.965,327.589 902.000,387.769 902.000,451.000 C902.000,511.891 889.905,569.950 868.032,622.943 ZM663.000,150.000 L613.000,150.000 L613.000,216.256 L594.988,216.273 C569.788,216.273 547.588,219.779 528.388,226.773 C509.188,233.776 492.585,243.273 478.588,255.273 C464.582,267.273 452.882,281.073 443.488,296.673 C439.088,303.973 435.145,311.433 431.623,319.040 C431.231,319.015 431.000,319.000 431.000,319.000 L280.167,602.286 L77.836,197.670 C158.985,78.366 295.836,-0.000 451.000,-0.000 C614.000,-0.000 756.792,86.480 836.028,216.052 L663.000,216.210 L663.000,150.000 ZM312.000,680.000 L410.887,505.217 C413.305,519.774 416.762,534.263 421.288,548.673 C426.688,565.876 434.085,582.273 443.488,597.873 C452.882,613.473 464.582,627.273 478.588,639.273 C492.585,651.273 509.188,660.779 528.388,667.773 C547.588,674.776 569.788,678.273 594.988,678.273 L613.000,678.318 L613.000,746.000 L663.000,746.000 L663.000,678.445 L840.234,678.894 C761.917,812.368 616.936,902.000 451.000,902.000 C201.920,902.000 -0.000,700.080 -0.000,451.000 C-0.000,386.685 13.492,325.531 37.752,270.169 L254.000,679.000 L312.000,680.000 Z"/>
</g>
</svg>